<svg xmlns="http://www.w3.org/2000/svg" width="100" height="25" viewBox="0 0 100 25">
    <g fill="#343434" fill-rule="evenodd">
        <path d="M63.982 5.266c1.223-.34 2.613-.343 3.847 0 .61.17 1.19.412 1.723.718.534.307 1.027.682 1.467 1.116.44.434.82.921 1.13 1.448.311.526.556 1.1.728 1.705.173.61.26 1.251.26 1.907 0 .656-.087 1.296-.26 1.9-.173.6-.417 1.17-.727 1.695-.311.527-.692 1.014-1.132 1.445-.44.43-.933.804-1.466 1.11-.534.308-1.114.548-1.725.715-.614.168-1.261.252-1.926.252-.664 0-1.312-.084-1.925-.252-.613-.167-1.194-.41-1.728-.72-.533-.31-1.024-.685-1.46-1.115-.436-.43-.815-.914-1.126-1.438-.311-.524-.555-1.096-.724-1.7-.17-.605-.256-1.245-.256-1.9 0-.65.086-1.288.256-1.896.169-.607.414-1.183.729-1.71.313-.526.693-1.012 1.128-1.444.437-.435.93-.811 1.464-1.118.532-.306 1.112-.548 1.723-.718zM81.19 5c.746 0 1.467.106 2.14.314.667.206 1.302.506 1.887.891.12.072.224.161.309.265.125.155.19.343.19.546 0 .146-.037.294-.11.439l-.017.032-.88 1.472c-.26.345-.553.417-.755.417-.092 0-.185-.015-.286-.046-.09-.028-.18-.069-.267-.123l-.027-.018c-.323-.227-.673-.407-1.042-.533-.36-.124-.75-.186-1.159-.186-.513 0-.988.095-1.41.284-.428.191-.802.454-1.113.78-.311.327-.558.719-.732 1.164-.176.447-.265.936-.265 1.454 0 .51.089.995.264 1.44.175.442.421.832.733 1.16.31.326.684.586 1.11.775.423.186.898.28 1.413.28.41 0 .806-.062 1.175-.186.375-.126.725-.304 1.04-.53.1-.075.216-.13.34-.158.064-.015.118-.026.162-.033l.09-.008c.186 0 .463.068.73.388l.046.067.885 1.476c.073.144.11.289.11.43 0 .22-.077.416-.223.57-.073.075-.156.147-.247.212-.605.4-1.248.706-1.926.92-.684.214-1.412.322-2.165.322-.664 0-1.312-.084-1.925-.252-.612-.167-1.193-.41-1.727-.72s-1.025-.685-1.46-1.115c-.436-.43-.816-.913-1.13-1.436-.315-.525-.56-1.097-.73-1.702-.17-.605-.256-1.245-.256-1.9 0-.656.087-1.295.256-1.9.17-.604.415-1.18.729-1.709.313-.529.693-1.017 1.129-1.45.437-.435.93-.81 1.464-1.118.533-.306 1.112-.548 1.723-.717C79.877 5.087 80.525 5 81.19 5zm-50.526.19c.223 0 .438.077.62.222.217.171.336.419.336.697v12.06c0 .55-.384.918-.956.918H28.93c-.557 0-.93-.369-.93-.918V6.109c0-.23.078-.444.225-.616.118-.138.337-.303.705-.303zm5.657 0c.17 0 .332.04.484.117.15.077.28.192.389.34 1 1.41 1.989 2.805 2.968 4.189l1.971 2.781.007-6.648c.04-.231.15-.427.32-.568.17-.138.378-.211.604-.211h1.688c.243 0 .468.079.65.227.21.171.325.417.325.692v12.085c0 .535-.385.893-.958.893h-1.897c-.217 0-.533-.08-.806-.461-1.03-1.473-2.051-2.939-3.069-4.404l-2.06-2.968v6.915c0 .335-.132.542-.242.657-.168.174-.406.261-.706.261h-1.68c-.365 0-.58-.15-.696-.275-.107-.115-.235-.32-.235-.635V6.117c0-.24.083-.46.238-.633.12-.134.339-.294.694-.294zm16.958 0c.666 0 1.29.131 1.857.39.558.257 1.046.604 1.45 1.033.404.427.722.924.944 1.476.223.554.336 1.14.336 1.74 0 .59-.111 1.167-.332 1.715-.22.545-.532 1.037-.93 1.462-.4.426-.882.772-1.434 1.028-.561.26-1.181.392-1.843.392h-2.335v3.751c0 .545-.377.91-.939.91h-1.752c-.556 0-.93-.365-.93-.91V6.135c0-.566.379-.945.94-.945zm36.694 0c.103 0 .21.019.317.056.114.04.218.1.31.177.082.07.154.152.212.244.084.133.127.285.127.442v3.75l3.93-4.197c.272-.389.592-.472.815-.472h2.501c.618 0 .783.404.783.643 0 .28-.188.48-.25.546l-4.315 4.962 5.116 6.532c.123.163.245.354.245.58 0 .306-.228.634-.73.634h-2.659c-.227 0-.554-.086-.829-.491l-3.709-4.666-.898.917v3.322c0 .55-.388.918-.966.918h-1.775c-.557 0-.931-.369-.931-.918V6.109c0-.235.082-.452.237-.625.12-.134.339-.294.694-.294zM65.901 8.504c-.51 0-.988.095-1.42.282-.437.19-.82.451-1.14.776-.32.326-.576.715-.762 1.156-.184.438-.277.915-.277 1.416 0 .508.093.987.277 1.425.186.44.442.828.761 1.15.32.323.703.583 1.14.773.433.188.91.283 1.421.283.504 0 .98-.095 1.411-.283.439-.19.825-.45 1.147-.774.322-.322.579-.709.764-1.149.184-.438.277-.917.277-1.425 0-.501-.093-.978-.277-1.416-.186-.44-.443-.829-.765-1.155-.323-.325-.708-.587-1.146-.777-.432-.187-.907-.282-1.41-.282zm-12.993-.043h-1.916v2.711h1.916c.185 0 .35-.035.507-.106.165-.075.303-.173.422-.298.121-.129.214-.272.282-.44.068-.164.1-.332.1-.511 0-.168-.032-.33-.1-.495-.07-.169-.161-.314-.282-.443-.118-.127-.256-.228-.423-.308-.154-.074-.32-.11-.506-.11zM6.292 0C7.782 0 8.99 1.202 8.99 2.685v1.79h10.067c1.371 0 2.487 1.092 2.516 2.45l.001.056v10.142c0 .907-.492 1.743-1.287 2.186l-8.27 4.611c-.764.426-1.695.426-2.46 0l-8.269-4.61C.492 18.865 0 18.03 0 17.122V6.98c0-1.384 1.127-2.506 2.517-2.506h1.079v-1.79c0-1.464 1.176-2.655 2.64-2.684zM8.99 13.421c0 .497-.403.9-.9.9-.496 0-.898-.403-.898-.9V2.685c0-.494-.402-.895-.899-.895-.496 0-.899.4-.899.895v3.58H2.517c-.397 0-.72.32-.72.716v10.142c0 .259.141.498.369.624l8.27 4.612c.217.121.484.121.702 0l8.27-4.612c.227-.126.367-.365.367-.624V6.98c0-.395-.322-.716-.719-.716H8.988v7.156z"/>
    </g>
</svg>
